<?xml version="1.0" standalone="no"?>
<!DOCTYPE svg PUBLIC "-//W3C//DTD SVG 20010904//EN"
 "http://www.w3.org/TR/2001/REC-SVG-20010904/DTD/svg10.dtd">
<svg version="1.0" xmlns="http://www.w3.org/2000/svg"
 width="700.000000pt" height="700.000000pt" viewBox="0 0 700.000000 700.000000"
 preserveAspectRatio="xMidYMid meet">
<metadata>
Created by potrace 1.14, written by Peter Selinger 2001-2017
</metadata>
<g transform="translate(0.000000,700.000000) scale(0.100000,-0.100000)"
fill="#000000" stroke="none">
<path d="M3367 6984 c-1 -1 -51 -5 -110 -8 -60 -3 -141 -11 -180 -16 -40 -6
-83 -13 -97 -15 -40 -5 -153 -24 -180 -30 -14 -3 -38 -8 -55 -11 -201 -36
-490 -115 -625 -171 -168 -68 -292 -160 -325 -238 -8 -21 -15 -41 -15 -45 0
-7 197 107 225 130 7 5 26 13 43 16 89 18 24 -137 -99 -235 l-46 -37 75 1 c53
0 76 -4 80 -13 4 -14 -56 -76 -158 -162 -105 -89 -178 -169 -204 -224 -22 -46
-24 -64 -24 -182 0 -184 26 -269 108 -358 59 -64 120 -91 205 -91 79 1 115 15
170 71 72 72 114 202 109 342 -2 87 17 176 54 251 55 111 266 298 447 395 28
15 57 31 65 36 34 21 171 81 247 109 283 104 539 133 702 80 79 -26 146 -85
178 -158 21 -48 25 -189 8 -271 -22 -103 -66 -212 -176 -435 -206 -417 -377
-617 -602 -706 -26 -11 -92 -26 -145 -34 -119 -19 -202 -48 -235 -83 -83 -86
-83 -259 -2 -378 75 -109 185 -164 317 -159 140 6 221 61 368 250 43 55 96
117 118 138 35 34 40 36 47 20 5 -10 9 -48 10 -86 1 -37 5 -70 8 -73 3 -3 54
23 114 59 108 65 153 86 153 70 -1 -16 -36 -79 -77 -140 -24 -34 -43 -66 -43
-70 0 -5 43 -9 95 -9 116 0 132 -10 89 -55 -16 -17 -61 -53 -101 -80 -39 -27
-74 -53 -77 -58 -3 -5 13 -21 35 -36 142 -94 131 -125 -47 -128 l-105 -2 5
-25 c3 -14 10 -42 15 -63 18 -77 -37 -86 -130 -22 -125 86 -237 88 -575 11
-241 -56 -361 -37 -480 75 -43 41 -52 47 -57 32 -3 -10 -16 -49 -30 -88 -24
-66 -44 -135 -53 -180 -2 -11 -6 -31 -9 -45 -27 -136 -27 -408 -1 -560 73
-421 305 -830 618 -1091 33 -27 60 -49 61 -49 1 0 2 60 2 133 0 191 31 284
107 327 84 47 195 12 497 -156 93 -53 175 -93 181 -89 34 21 -9 121 -91 209
-196 210 -196 213 -10 194 17 -1 18 7 5 60 -7 31 -17 87 -20 124 -6 65 -6 67
15 61 12 -3 50 -36 83 -74 34 -37 65 -66 69 -64 3 3 10 22 14 42 9 53 33 124
51 151 15 22 17 23 34 7 17 -15 41 -75 71 -173 7 -24 16 -45 19 -47 4 -3 25
11 46 29 51 44 113 78 129 72 15 -5 6 -74 -24 -171 -12 -37 -21 -69 -21 -71 0
-2 17 -3 38 -2 94 3 105 -30 40 -115 -24 -30 -64 -82 -90 -116 -82 -105 -91
-131 -94 -258 -2 -130 -22 -185 -82 -231 -33 -25 -43 -27 -121 -26 -94 0 -158
17 -298 78 l-83 35 -2 -27 c-9 -168 115 -258 397 -286 108 -11 410 -6 484 9
10 2 42 6 72 10 546 65 1069 384 1418 865 33 47 65 90 69 95 18 23 74 119 121
208 135 251 228 551 258 832 9 87 9 340 -1 420 -27 225 -103 469 -204 655
-119 220 -155 310 -148 373 5 40 13 43 37 16 11 -13 39 -44 63 -69 655 -701
567 -1999 -203 -2970 -95 -119 -410 -437 -516 -519 -44 -34 -88 -69 -98 -77
-9 -8 -19 -14 -21 -14 -2 0 -37 -23 -79 -50 -292 -193 -723 -346 -1112 -395
-27 -4 -63 -8 -80 -11 -40 -5 -129 -15 -190 -21 -27 -2 -196 -7 -375 -10 -332
-5 -390 -12 -390 -46 0 -24 19 -32 152 -70 176 -50 279 -104 300 -156 28 -74
9 -109 -157 -279 -199 -203 -254 -285 -273 -404 -10 -63 -1 -97 25 -96 10 0
59 -3 108 -8 162 -16 617 -10 720 10 11 2 45 7 75 11 83 10 196 31 320 60 113
26 387 116 490 162 277 122 490 245 707 406 452 337 817 781 1073 1302 70 144
166 379 185 455 1 3 4 12 8 20 23 58 109 406 122 493 3 27 8 56 10 65 3 17 14
93 20 142 31 240 20 699 -21 905 -2 11 -6 34 -8 50 -9 61 -48 233 -77 333
-164 569 -453 1049 -895 1487 -94 94 -178 176 -187 182 -9 7 -56 45 -104 84
-85 68 -286 208 -348 243 -16 9 -48 28 -70 41 -68 42 -305 161 -410 205 -178
76 -520 181 -665 205 -19 3 -42 8 -50 10 -8 3 -35 7 -59 10 -24 3 -47 7 -50 9
-3 2 -40 7 -81 11 -41 4 -77 8 -80 10 -12 7 -446 25 -453 19z"/>
<path d="M1235 6189 c-359 -269 -666 -637 -872 -1044 -164 -324 -282 -710
-329 -1070 -3 -27 -8 -59 -10 -70 -25 -133 -25 -712 1 -854 1 -9 6 -43 10 -76
10 -81 12 -95 19 -132 3 -18 8 -48 11 -65 3 -18 8 -40 10 -48 2 -8 7 -31 10
-50 3 -19 11 -53 16 -75 6 -22 13 -47 15 -55 32 -136 103 -350 165 -502 234
-571 611 -1068 1079 -1424 71 -55 247 -174 256 -174 3 0 24 -13 47 -29 70 -48
344 -178 497 -235 l145 -55 35 38 c34 36 52 46 184 105 l60 27 -40 26 c-50 34
-75 63 -72 82 7 35 59 44 318 56 151 7 191 13 219 34 21 16 22 19 7 33 -15 16
-44 21 -171 33 -301 28 -471 98 -491 199 -7 38 12 136 27 136 5 0 9 5 9 11 0
15 52 79 119 146 44 44 73 70 175 155 5 4 -11 15 -35 24 -24 10 -87 40 -139
67 -566 293 -982 819 -1168 1477 -40 139 -51 190 -72 330 -32 205 -34 588 -5
749 1 9 6 39 9 66 19 134 100 424 153 545 47 107 135 284 172 344 23 37 41 69
39 71 -2 1 -26 14 -54 28 -114 58 -191 166 -210 300 -12 76 -4 296 12 368 11
49 13 316 3 369 -10 54 -44 137 -71 173 -13 17 -18 15 -83 -34z"/>
<path d="M2498 247 c-91 -21 -124 -33 -95 -35 6 0 40 -3 74 -5 81 -6 130 5
162 37 l26 26 -35 -1 c-19 0 -79 -11 -132 -22z"/>
</g>
</svg>
